<svg width="32" height="32" viewBox="0 0 32 32" fill="none" xmlns="http://www.w3.org/2000/svg">
<path d="M27.3602 9.63605C28.196 10.4718 28.8589 11.4639 29.3112 12.5559C29.7635 13.6478 29.9963 14.8181 29.9963 16C29.9963 17.1819 29.7635 18.3522 29.3112 19.4442C28.8589 20.5361 28.196 21.5282 27.3602 22.364" stroke="#333838" stroke-width="2" stroke-linecap="round" stroke-linejoin="round"/>
<path d="M10 21H4C3.73478 21 3.48043 20.8946 3.29289 20.7071C3.10536 20.5196 3 20.2652 3 20V12C3 11.7348 3.10536 11.4804 3.29289 11.2929C3.48043 11.1054 3.73478 11 4 11H10L19 4V28L10 21Z" stroke="#333838" stroke-width="2" stroke-linecap="round" stroke-linejoin="round"/>
<path d="M10 11V21" stroke="#333838" stroke-width="2" stroke-linecap="round" stroke-linejoin="round"/>
<path d="M23.8247 13.1716C24.1961 13.543 24.4908 13.984 24.6918 14.4693C24.8928 14.9546 24.9963 15.4747 24.9963 16C24.9963 16.5253 24.8928 17.0454 24.6918 17.5307C24.4908 18.016 24.1961 18.457 23.8247 18.8284" stroke="#333838" stroke-width="2" stroke-linecap="round" stroke-linejoin="round"/>
</svg>
