<svg width="32" height="32" viewBox="0 0 32 32" fill="none" xmlns="http://www.w3.org/2000/svg">
<path d="M16.0001 23.0001C19.8661 23.0001 23.0001 19.8661 23.0001 16.0001C23.0001 12.1341 19.8661 9.00006 16.0001 9.00006C12.1341 9.00006 9.00012 12.1341 9.00012 16.0001C9.00012 19.8661 12.1341 23.0001 16.0001 23.0001Z" stroke="#1D2222" stroke-width="2" stroke-linecap="round" stroke-linejoin="round"/>
<path d="M27.0001 15.0001L28.2885 13.0676C28.3724 12.9431 28.428 12.8016 28.4511 12.6532C28.4742 12.5049 28.4644 12.3532 28.4223 12.2091C28.1793 11.4087 27.8589 10.6339 27.4658 9.89555C27.3938 9.76411 27.2937 9.65019 27.1726 9.56193C27.0515 9.47367 26.9124 9.41323 26.7652 9.38494L24.4854 8.92895L23.0713 7.51477L22.6153 5.23494C22.587 5.08775 22.5265 4.94863 22.4383 4.82751C22.35 4.70638 22.2361 4.60624 22.1046 4.53423C21.3662 4.1412 20.5914 3.82091 19.791 3.57788C19.6469 3.53581 19.4952 3.52599 19.3468 3.54912C19.1985 3.57225 19.057 3.62776 18.9325 3.71172L17.0001 5H15.0001L13.0677 3.71172C12.9432 3.62776 12.8017 3.57225 12.6533 3.54912C12.505 3.52599 12.3533 3.53581 12.2092 3.57788C11.4088 3.82091 10.6339 4.1412 9.89557 4.53422C9.76412 4.60623 9.65019 4.70638 9.56192 4.82751C9.47364 4.94864 9.41321 5.08777 9.38492 5.23496L8.92905 7.51464L7.51474 8.92895L5.23503 9.38483C5.08785 9.41311 4.94873 9.47354 4.8276 9.56181C4.70648 9.65008 4.60633 9.764 4.53432 9.89544C4.14123 10.6338 3.82089 11.4087 3.57782 12.2091C3.53576 12.3532 3.52594 12.5049 3.54908 12.6532C3.57221 12.8016 3.62773 12.9431 3.71168 13.0676L4.99997 15V17L3.71168 18.9324C3.62773 19.0569 3.57222 19.1984 3.54909 19.3468C3.52596 19.4951 3.53577 19.6468 3.57784 19.7909C3.82083 20.5913 4.14112 21.3662 4.53418 22.1046C4.60619 22.236 4.70634 22.3499 4.82746 22.4382C4.94859 22.5264 5.0877 22.5869 5.23488 22.6152L7.51474 23.0712L8.92892 24.4853L9.38481 26.7652C9.41309 26.9124 9.47352 27.0515 9.56178 27.1726C9.65005 27.2937 9.76397 27.3939 9.89541 27.4659C10.6337 27.859 11.4086 28.1793 12.209 28.4223C12.3531 28.4643 12.5047 28.4741 12.6531 28.451C12.8015 28.4279 12.9429 28.3724 13.0674 28.2884L15 27.0001H17L18.9325 28.2885C19.057 28.3725 19.1985 28.428 19.3468 28.4511C19.4952 28.4742 19.6469 28.4644 19.791 28.4224C20.5914 28.1793 21.3662 27.8591 22.1045 27.466C22.236 27.394 22.3499 27.2939 22.4382 27.1727C22.5264 27.0516 22.5868 26.9125 22.6151 26.7653L23.0711 24.4855L24.4853 23.0712L26.7651 22.6153C26.9123 22.587 27.0514 22.5266 27.1726 22.4383C27.2937 22.35 27.3938 22.2361 27.4659 22.1047C27.8589 21.3663 28.1793 20.5915 28.4223 19.7912C28.4644 19.647 28.4742 19.4954 28.4511 19.347C28.428 19.1986 28.3724 19.0572 28.2885 18.9327L27.0001 17.0001V15.0001Z" stroke="#1D2222" stroke-width="2" stroke-linecap="round" stroke-linejoin="round"/>
</svg>
