<svg width="100" height="100" viewBox="0 0 100 100" fill="none" xmlns="http://www.w3.org/2000/svg">
<rect x="0.5" y="0.5" width="99" height="99" rx="49.5" fill="#788788" stroke="#788788"/>
<path d="M27.4125 34.771C26.6314 38.9693 26.0258 41.3373 30.6957 41.3373C32.6886 41.3373 35.4075 41.4905 35.6204 38.7229C35.9792 34.0586 23.4896 33.4245 24.1597 37.7806C24.9346 42.8172 37.2552 43.3624 40.7883 43.4957C46.7679 43.7213 50.684 43.0821 55.6233 39.9389C56.0959 39.6382 61.094 35.8601 58.0249 35.3486C55.7849 34.9753 48.0259 33.7902 49.5434 37.6286C50.7989 40.8042 56.5696 42.272 58.0553 38.7229C59.2608 35.8432 58.4573 34.7934 55.4409 35.4398C53.7355 35.8052 52.5899 39.1485 54.8937 39.1485C57.3696 39.1485 58.7329 34.8127 56.9001 33.3726C52.2371 29.7088 44.5246 26.7318 38.8427 29.5727C36.6045 30.6918 33.9249 30.3935 31.486 30.3935C28.7438 30.3935 25.6804 31.2519 23.035 30.9407C19.8534 30.5664 23.8009 24.1714 24.4941 23.4624C27.4875 20.401 30.7612 20.8079 30.1485 26.0159C30.0971 26.4528 28.4181 24.1683 28.6285 22.976C29.1592 19.9686 33.7393 19.7781 36.1068 19.5712C36.9803 19.4949 41.179 18.7657 42.0651 19.5712C42.3347 19.8163 43.1717 22.1248 42.4299 22.1248C41.8116 22.1248 41.6895 21.2202 41.7307 20.7872C41.8908 19.1062 44.1704 18.4127 45.4395 17.8688C47.7883 16.8622 52.9781 14.9805 55.1065 17.1088C55.5003 17.5026 60.0806 22.5082 58.7545 23.0976C57.647 23.5898 53.2246 19.5803 52.7658 18.72C52.3788 17.9945 53.869 17.6689 54.2553 17.5648C56.0878 17.0715 57.602 18.056 59.1497 18.9632C60.9998 20.0478 64.6546 22.631 63.9528 25.4383C63.0733 28.9562 50.7161 25.8527 60.1833 26.0159C62.4227 26.0545 68.8275 26.5683 68.3303 30.3327C67.8084 34.2847 61.4631 33.8735 58.6025 33.4334C50.7354 32.2231 60.4025 28.0776 61.2168 31.2447C61.7693 33.393 61.2562 35.9549 61.3384 38.1758C61.4262 40.5463 62.6206 42.9248 63.5576 44.9549C64.9671 48.0087 67.8822 51.0538 67.2968 54.7131C66.528 59.518 58.2129 59.4217 54.6809 60.2458C49.8959 61.3624 44.093 61.7756 39.2683 60.489C37.2977 59.9635 37.4299 57.133 37.9308 55.4427C38.5079 53.4948 38.3564 47.3312 38.3564 49.3628C38.3564 52.7756 35.4018 53.5086 34.1004 56.1115C32.8872 58.5379 38.5081 58.6819 39.9979 58.8475C40.7217 58.9279 40.6957 59.9446 40.4235 60.489C39.5061 62.3239 36.2273 61.8821 34.5564 62.4042C32.7536 62.9676 32.145 64.8824 30.3917 65.3834C29.796 65.5536 28.5677 65.0365 28.5677 66.0218C28.5677 68.1004 31.9237 69.4848 33.5228 70.0345C36.381 71.017 38.7697 71.4503 41.0923 69.7913C41.9058 69.2103 45.9702 64.6171 46.017 65.4138C46.1131 67.0471 46.9386 68.6969 48.753 68.6969C50.3577 68.6969 52.0972 68.8852 53.6777 68.5753C55.7271 68.1735 56.1201 66.3435 57.5081 65.1098C59.7422 63.1239 58.0287 71.8617 55.8665 73.9257C51.6485 77.9519 44.532 78.7371 39.1163 79.9144C36.7168 80.436 27.4125 81.5652 27.4125 77.9688C27.4125 75.8003 27.4125 73.6318 27.4125 71.4633C27.4125 68.2381 27.6963 70.5562 27.3821 72.2841C27.1402 73.6148 25.3898 76.868 25.8925 77.9992C27.454 81.5126 32.6844 82.8446 36.1068 83.3495C38.721 83.7352 45.3397 84.1143 46.9898 81.8296C48.8717 79.2239 48.3138 83.9287 48.8746 85.1127C49.7189 86.895 49.8799 88.3728 50.425 90.2806C50.8796 91.8719 50.9418 93.3126 50.9418 95.175C50.9418 99.2629 56.0861 98.2453 59.1497 98.2453C62.6627 98.2453 65.1985 99.029 67.3576 96.3301C68.2144 95.259 67.844 93.8328 68.2087 92.5302C69.0284 89.603 68.9262 86.9227 68.9991 83.8967C69.1979 75.6458 73.6087 66.1399 80.4294 61.3402C84.6331 58.382 83.6019 54.376 81.159 50.214C79.5773 47.5193 79.1181 43.7956 76.9334 41.6109C72.145 36.8224 64.3514 43.3437 67.2056 49.2716C67.7353 50.3718 72.2823 55.6443 72.2823 51.734C72.2823 48.8133 71.7351 50.4759 71.7351 52.2812" stroke="#F9F8F6" stroke-linecap="round" stroke-linejoin="round"/>
</svg>
