<svg width="24" height="24" viewBox="0 0 24 24" fill="none" xmlns="http://www.w3.org/2000/svg">
<path d="M20.5205 7.22705C21.1473 7.85385 21.6445 8.59796 21.9837 9.41691C22.3229 10.2359 22.4975 11.1136 22.4975 12C22.4975 12.8864 22.3229 13.7642 21.9837 14.5831C21.6445 15.4021 21.1473 16.1462 20.5205 16.773" stroke="#F9F8F6" stroke-width="2" stroke-linecap="round" stroke-linejoin="round"/>
<path d="M7.5 15.75H3C2.80109 15.75 2.61032 15.671 2.46967 15.5303C2.32902 15.3897 2.25 15.1989 2.25 15V9C2.25 8.80109 2.32902 8.61032 2.46967 8.46967C2.61032 8.32902 2.80109 8.25 3 8.25H7.5L14.25 3V21L7.5 15.75Z" stroke="#F9F8F6" stroke-width="2" stroke-linecap="round" stroke-linejoin="round"/>
<path d="M7.5 8.25V15.75" stroke="#F9F8F6" stroke-width="2" stroke-linecap="round" stroke-linejoin="round"/>
<path d="M17.8682 9.87866C18.1467 10.1572 18.3677 10.488 18.5185 10.8519C18.6692 11.2159 18.7468 11.606 18.7468 12C18.7468 12.3939 18.6692 12.7841 18.5185 13.148C18.3677 13.512 18.1467 13.8427 17.8682 14.1213" stroke="#F9F8F6" stroke-width="2" stroke-linecap="round" stroke-linejoin="round"/>
</svg>
